<!-- Generated by IcoMoon.io -->
<svg version="1.1" xmlns="http://www.w3.org/2000/svg" width="26" height="32" viewBox="0 0 26 32">
<title>download</title>
<path d="M14.96 32h-9.48c-0.978 0-1.77-0.792-1.77-1.77v0-0.85h17c1.53 0 2.77-1.24 2.77-2.77v0-23h0.93c0.006-0 0.013-0 0.020-0 0.978 0 1.77 0.792 1.77 1.77 0 0.004 0 0.007-0 0.011v-0.001 24.84c0 0.978-0.792 1.77-1.77 1.77v0zM11.25 28.38h-9.47c0 0-0 0-0 0-0.98 0-1.774-0.791-1.78-1.769v-18.511h5.62c1.371-0.006 2.48-1.118 2.48-2.49 0 0 0 0 0-0v0-4.84c0.002-0.027 0.004-0.058 0.004-0.090s-0.001-0.063-0.004-0.094l0 0.004v-0.59h12.63c0 0 0 0 0 0 0.972 0 1.76 0.788 1.76 1.76 0 0.004 0 0.007-0 0.011v-0.001 24.84c0 0.972-0.788 1.76-1.76 1.76v0zM4.59 21.53c0.006 0.462 0.378 0.834 0.839 0.84h6.181c0.464 0 0.84-0.376 0.84-0.84s-0.376-0.84-0.84-0.84h-6.18c-0.462 0.006-0.834 0.378-0.84 0.839v0.001zM4.59 17.27c0.006 0.46 0.38 0.83 0.84 0.83 0 0 0 0 0 0h12.36c0.027 0.003 0.059 0.005 0.091 0.005 0.464 0 0.84-0.376 0.84-0.84s-0.376-0.84-0.84-0.84c-0.032 0-0.064 0.002-0.095 0.005l0.004-0h-12.36c-0 0-0 0-0 0-0.46 0-0.834 0.37-0.84 0.829v0.001zM4.59 12.74c0.006 0.46 0.38 0.83 0.84 0.83 0 0 0 0 0 0h12.36c0.027 0.003 0.059 0.005 0.091 0.005 0.464 0 0.84-0.376 0.84-0.84s-0.376-0.84-0.84-0.84c-0.032 0-0.064 0.002-0.095 0.005l0.004-0h-12.36c-0 0-0 0-0 0-0.46 0-0.834 0.37-0.84 0.829v0.001zM5.59 7.1h-4.81c-0.004 0-0.009 0-0.014 0-0.409 0-0.74-0.331-0.74-0.74 0-0.208 0.086-0.396 0.224-0.53l5.58-5.58c0.132-0.147 0.319-0.241 0.529-0.25l0.001-0c0.003-0 0.007-0 0.011-0 0.403 0 0.73 0.327 0.73 0.73 0 0.014-0 0.028-0.001 0.042l0-0.002v4.87c-0.006 0.81-0.66 1.464-1.469 1.47h-0.001z"></path>
</svg>
