<?xml version="1.0" encoding="utf-8"?>
<!-- Generator: Adobe Illustrator 23.1.0, SVG Export Plug-In . SVG Version: 6.00 Build 0)  -->
<svg version="1.1" id="Layer_1" xmlns="http://www.w3.org/2000/svg" xmlns:xlink="http://www.w3.org/1999/xlink" x="0px" y="0px"
	 viewBox="0 0 32 32" style="enable-background:new 0 0 32 32;" xml:space="preserve">
<g>
	<path d="M31.9,0.9C31.6,0.3,31.2,0,30.5,0h-29C0.8,0,0.4,0.3,0.1,0.9C-0.1,1.5,0,2.1,0.5,2.5l11.2,11.2v11c0,0.4,0.1,0.7,0.4,1
		l5.8,5.8c0.3,0.3,0.6,0.4,1,0.4c0.2,0,0.4,0,0.6-0.1c0.6-0.3,0.9-0.7,0.9-1.3V13.7L31.5,2.5C32,2.1,32.1,1.5,31.9,0.9z"/>
</g>
</svg>
