<?xml version="1.0" encoding="utf-8"?>
<!-- Generator: Adobe Illustrator 22.0.1, SVG Export Plug-In . SVG Version: 6.00 Build 0)  -->
<svg version="1.1" id="Layer_1" xmlns="http://www.w3.org/2000/svg" xmlns:xlink="http://www.w3.org/1999/xlink" x="0px" y="0px"
	 viewBox="0 0 32 32" style="enable-background:new 0 0 32 32;" xml:space="preserve">
<path d="M22.2,20.9c2.1-2.2,3.4-5.2,3.4-8.4C25.6,5.6,19.9,0,12.8,0C5.7,0,0,5.6,0,12.4c0,6.9,5.7,12.4,12.8,12.4
	c2.9,0,5.5-0.9,7.7-2.5l9.5,9.3c0.2,0.2,0.5,0.3,0.8,0.3s0.6-0.1,0.8-0.3c0.4-0.4,0.4-1.1,0-1.6L22.2,20.9z M2.3,12.4
	C2.3,6.8,7,2.3,12.8,2.3c5.8,0,10.5,4.6,10.5,10.2c0,5.6-4.7,10.2-10.5,10.2C7,22.6,2.3,18.1,2.3,12.4z"/>
</svg>
